<svg xmlns="http://www.w3.org/2000/svg" version="1.1" xmlns:xlink="http://www.w3.org/1999/xlink" xmlns:svgjs="http://svgjs.dev/svgjs" width="1500" height="1500" viewBox="0 0 1500 1500"><rect width="1500" height="1500" fill="#90adbb"></rect><g transform="matrix(0.6666666666666666,0,0,0.6666666666666666,249.50000000000006,249.50000000000006)"><svg viewBox="0 0 280 280" data-background-color="#90adbb" preserveAspectRatio="xMidYMid meet" height="1500" width="1500" xmlns="http://www.w3.org/2000/svg" xmlns:xlink="http://www.w3.org/1999/xlink"><g id="tight-bounds" transform="matrix(1,0,0,1,0.13999999999998636,0.13999999999998636)"><svg viewBox="0 0 279.72 279.72" height="279.72" width="279.72"><g><svg viewBox="0 0 279.72 279.72" height="279.72" width="279.72"><g><svg viewBox="0 0 279.72 279.72" height="279.72" width="279.72"><g id="textblocktransform"><svg viewBox="0 0 279.72 279.72" height="279.72" width="279.72" id="textblock"><g><svg viewBox="0 0 279.72 279.72" height="279.72" width="279.72"><g transform="matrix(1,0,0,1,73.92936372216631,86.22214945697206)"><svg viewBox="0 0 131.8612725556674 107.27570108605589" height="107.27570108605589" width="131.8612725556674"><g id="icon-0"><svg xmlns="http://www.w3.org/2000/svg" xmlns:xlink="http://www.w3.org/1999/xlink" version="1.1" x="0" y="0" viewBox="5 13.380525391417759 90 73.21947460858223" enable-background="new 0 0 100 100" xml:space="preserve" height="107.27570108605589" width="131.8612725556674" class="icon-jxe-0" data-fill-palette-color="accent" id="jxe-0"></svg></g></svg></g><g id="text-0"><path d="M32.501 88.772l-8.468 0.028-4.338 11.793 6.434 5.499-1.075 2.922-23.083-20.223 0.481-1.307c0.311-0.846 1.05-1.272 2.217-1.279v0l17.688-0.205 0.014-0.038 0.077 0.028 11.128-0.14zM6.105 88.915l11.531 9.917 3.688-10.025-15.205 0.07z" fill="#f6f6f6" data-fill-palette-color="primary"></path><path d="M61.51 50.707c-1.488 1.326-3.019 1.995-4.591 2.006-1.577 0.016-2.945-0.627-4.103-1.926v0l-0.873-0.979c-1.145-1.285-1.603-2.723-1.376-4.315 0.222-1.588 1.087-3.054 2.596-4.399v0l1.958-1.744c0.673-0.6 1.457-1.115 2.352-1.548 0.89-0.427 1.745-0.695 2.563-0.802v0l-2.262-2.539c-0.759-0.851-1.644-1.311-2.655-1.379-1.007-0.072-1.948 0.282-2.825 1.064v0l-2.447 2.18c-0.877 0.781-1.399 1.612-1.565 2.492-0.167 0.88 0.047 1.654 0.642 2.322v0l-2.194 1.956c-1.104-1.239-1.527-2.658-1.271-4.259 0.251-1.596 1.142-3.075 2.671-4.438v0l2.447-2.18c1.504-1.34 3.115-1.98 4.833-1.92 1.718 0.06 3.22 0.812 4.505 2.254v0l9.505 10.667-2.08 1.853-1.907-2.141c0.185 1.152 0.089 2.28-0.29 3.386-0.383 1.11-0.982 2.028-1.798 2.754v0zM59.793 48.781l1.897-1.69c0.958-0.854 1.551-1.913 1.778-3.177 0.222-1.259 0.032-2.493-0.57-3.703v0l-1.008-1.132c-0.753-0.024-1.593 0.167-2.521 0.573-0.933 0.411-1.776 0.952-2.531 1.625v0l-1.958 1.744c-0.836 0.745-1.323 1.563-1.461 2.455-0.138 0.892 0.101 1.684 0.719 2.377v0l0.872 0.979c0.631 0.709 1.383 1.059 2.254 1.051 0.871-0.008 1.714-0.375 2.529-1.102z" fill="#f6f6f6" data-fill-palette-color="primary"></path><path d="M113.167 23.743c-1.116 0.266-2.088-0.219-2.915-1.453v0l-11.092-16.204 3.028-0.721 10.109 15.258 0.04-0.009 2.145-18.177 3.029-0.722-2.989 21.705z" fill="#f6f6f6" data-fill-palette-color="primary"></path><path d="M166.437 24.004c-1.944-0.444-3.376-1.303-4.297-2.578-0.927-1.276-1.197-2.763-0.809-4.46v0l0.291-1.278c0.383-1.677 1.289-2.885 2.718-3.624 1.422-0.74 3.119-0.885 5.09-0.435v0l2.556 0.584c0.879 0.201 1.754 0.54 2.624 1.019 0.864 0.477 1.578 1.019 2.141 1.623v0l0.756-3.315c0.254-1.112 0.115-2.099-0.416-2.963-0.525-0.862-1.359-1.424-2.504-1.685v0l-3.195-0.729c-1.145-0.261-2.124-0.205-2.938 0.169-0.814 0.374-1.32 0.998-1.52 1.87v0l-2.865-0.654c0.369-1.618 1.28-2.786 2.733-3.505 1.446-0.72 3.168-0.853 5.164-0.396v0l3.195 0.729c1.964 0.448 3.419 1.39 4.367 2.825 0.947 1.435 1.206 3.094 0.775 4.977v0l-3.18 13.929-2.715-0.62 0.638-2.796c-0.831 0.819-1.807 1.394-2.926 1.728-1.126 0.331-2.222 0.375-3.287 0.132v0zM167.011 21.488l2.476 0.565c1.251 0.286 2.458 0.155 3.62-0.393 1.155-0.549 2.05-1.419 2.686-2.611v0l0.338-1.478c-0.417-0.627-1.06-1.201-1.929-1.722-0.875-0.522-1.806-0.895-2.791-1.12v0l-2.556-0.584c-1.092-0.249-2.041-0.172-2.847 0.233-0.807 0.404-1.313 1.059-1.52 1.964v0l-0.292 1.278c-0.211 0.925-0.061 1.74 0.451 2.445 0.511 0.705 1.3 1.179 2.364 1.423z" fill="#f6f6f6" data-fill-palette-color="primary"></path><path d="M217.375 49.975c-1.569-1.359-2.441-2.891-2.616-4.597-0.181-1.71 0.353-3.285 1.6-4.725v0l2.167 1.878c-0.747 0.862-1.076 1.8-0.989 2.815 0.092 1.02 0.593 1.923 1.501 2.71v0l2.694 2.333c0.888 0.769 1.767 1.214 2.637 1.336 0.865 0.117 1.548-0.113 2.049-0.691v0l0.905-1.045c0.34-0.392 0.484-0.872 0.434-1.44-0.045-0.563-0.271-1.111-0.676-1.643v0l-4.552-5.57c-0.907-1.111-1.413-2.263-1.519-3.456-0.105-1.193 0.209-2.212 0.943-3.058v0l0.878-1.015c1.037-1.197 2.327-1.769 3.871-1.714 1.538 0.05 3.05 0.718 4.536 2.005v0l2.663 2.307c1.44 1.247 2.25 2.663 2.431 4.247 0.181 1.584-0.307 3.045-1.464 4.382v0l-2.168-1.878c0.637-0.776 0.916-1.605 0.839-2.485-0.083-0.885-0.516-1.667-1.301-2.346v0l-2.663-2.307c-0.826-0.715-1.652-1.097-2.478-1.144-0.826-0.047-1.508 0.239-2.044 0.858v0l-0.771 0.89c-0.34 0.392-0.473 0.891-0.401 1.496 0.072 0.605 0.341 1.181 0.806 1.728v0l4.521 5.542c0.866 1.075 1.346 2.195 1.439 3.361 0.093 1.165-0.236 2.181-0.987 3.047v0l-1.066 1.231c-0.984 1.135-2.259 1.638-3.827 1.508-1.568-0.13-3.134-0.872-4.698-2.226v0z" fill="#f6f6f6" data-fill-palette-color="primary"></path><path d="M247.832 90.13l26.623-10.573 1.085 2.731-10.271 4.079c1.12 0.231 2.128 0.697 3.025 1.4 0.896 0.702 1.53 1.523 1.903 2.462v0l1.059 2.665c0.693 1.745 0.657 3.394-0.108 4.946-0.765 1.553-2.108 2.711-4.03 3.474v0l-12.822 5.093-1.088-2.742 12.897-5.122c1.161-0.461 1.994-1.13 2.498-2.006 0.504-0.876 0.566-1.793 0.186-2.752v0l-0.998-2.512c-0.474-1.193-1.368-2.094-2.683-2.704-1.308-0.612-2.736-0.757-4.284-0.436v0l-11.907 4.729z" fill="#f6f6f6" data-fill-palette-color="primary"></path><path d="M0 139.856c0-6.043 4.899-10.943 10.943-10.942 6.043 0 10.943 4.899 10.942 10.942 0 6.043-4.899 10.943-10.942 10.943-6.043 0-10.943-4.899-10.943-10.943z" fill="#f6f6f6" data-fill-palette-color="primary"></path><path d="M257.835 139.856c0-6.043 4.899-10.943 10.942-10.942 6.043 0 10.943 4.899 10.943 10.942 0 6.043-4.899 10.943-10.943 10.943-6.043 0-10.943-4.899-10.942-10.943z" fill="#f6f6f6" data-fill-palette-color="primary"></path></g><g id="text-1"><path d="M8.961 186.5l24.542-8.654-3.021-8.568 2.473-0.871 7.05 19.993-2.473 0.872-3.021-8.567-24.542 8.654z" fill="#f6f6f6" data-fill-palette-color="secondary"></path><path d="M39.496 237.058c-1.378-1.441-2.1-2.947-2.166-4.517-0.071-1.576 0.522-2.966 1.78-4.169v0l0.948-0.906c1.243-1.189 2.665-1.698 4.264-1.528 1.595 0.166 3.091 0.979 4.487 2.44v0l1.813 1.895c0.623 0.651 1.164 1.414 1.622 2.288 0.463 0.88 0.763 1.727 0.899 2.541v0l2.458-2.35c0.824-0.788 1.252-1.689 1.284-2.702 0.032-1.013-0.355-1.942-1.162-2.786v0l-2.265-2.368c-0.812-0.849-1.66-1.341-2.546-1.477-0.886-0.136-1.654 0.108-2.305 0.731v0l-2.032-2.124c1.204-1.151 2.608-1.63 4.212-1.435 1.608 0.2 3.121 1.04 4.536 2.521v0l2.265 2.368c1.392 1.456 2.088 3.043 2.089 4.762 0 1.719-0.698 3.247-2.094 4.583v0l-10.325 9.874-1.926-2.013 2.073-1.982c-1.145 0.226-2.278 0.167-3.401-0.177-1.118-0.339-2.054-0.903-2.809-1.692v0zM41.361 235.274l1.756 1.836c0.887 0.928 1.964 1.48 3.23 1.658 1.271 0.183 2.5-0.048 3.688-0.693v0l1.095-1.047c-0.003-0.753-0.225-1.589-0.668-2.507-0.438-0.913-1.007-1.734-1.706-2.465v0l-1.812-1.894c-0.774-0.809-1.609-1.267-2.504-1.375-0.896-0.107-1.679 0.161-2.351 0.803v0l-0.947 0.906c-0.686 0.656-1.01 1.419-0.971 2.289 0.039 0.87 0.435 1.7 1.19 2.489z" fill="#f6f6f6" data-fill-palette-color="secondary"></path><path d="M116.351 256.449c1.724 0.527 2.918 1.5 3.584 2.918 0.666 1.418 0.7 3.102 0.103 5.054v0l-4.156 13.584-2.821-0.863 4.18-13.662c0.35-1.143 0.363-2.12 0.041-2.933-0.323-0.813-0.915-1.351-1.777-1.615v0l-2.223-0.68c-1.123-0.344-2.166-0.249-3.129 0.285-0.963 0.534-1.76 1.457-2.39 2.771v0l-3.976 12.996-2.821-0.863 4.109-13.427c0.374-1.221 0.425-2.251 0.153-3.091-0.265-0.838-0.815-1.385-1.651-1.64v0l-2.233-0.683c-1.071-0.328-2.155-0.145-3.252 0.547-1.097 0.692-1.981 1.761-2.651 3.205v0l-3.749 12.252-2.811-0.86 5.975-19.528 2.733 0.836-0.863 2.82c0.826-0.833 1.715-1.403 2.665-1.712 0.951-0.309 1.858-0.331 2.72-0.067v0l2.311 0.707c1.09 0.334 1.952 0.89 2.585 1.669 0.633 0.779 1.002 1.742 1.108 2.888v0c0.92-0.861 1.878-1.425 2.874-1.691 0.996-0.267 1.989-0.248 2.982 0.055v0z" fill="#f6f6f6" data-fill-palette-color="secondary"></path><path d="M170.353 276.433c-1.946 0.433-3.608 0.271-4.987-0.486-1.385-0.755-2.266-1.983-2.644-3.682v0l-0.284-1.28c-0.373-1.68-0.073-3.159 0.902-4.439 0.968-1.278 2.438-2.137 4.411-2.575v0l2.559-0.569c0.88-0.196 1.813-0.263 2.798-0.203 0.992 0.059 1.872 0.241 2.64 0.547v0l-0.738-3.319c-0.247-1.113-0.796-1.946-1.646-2.499-0.85-0.552-1.845-0.702-2.985-0.448v0l-3.2 0.711c-1.146 0.255-2.007 0.726-2.581 1.413-0.575 0.687-0.764 1.471-0.569 2.351v0l-2.869 0.637c-0.361-1.626-0.043-3.075 0.954-4.345 1.004-1.272 2.506-2.131 4.505-2.575v0l3.2-0.712c1.966-0.437 3.685-0.211 5.155 0.68 1.471 0.89 2.416 2.278 2.835 4.164v0l3.1 13.947-2.719 0.605-0.622-2.8c-0.4 1.096-1.037 2.035-1.913 2.817-0.869 0.781-1.836 1.289-2.902 1.527v0zM169.793 273.914l2.479-0.551c1.253-0.279 2.283-0.913 3.092-1.904 0.815-0.992 1.254-2.164 1.317-3.514v0l-0.329-1.48c-0.646-0.388-1.476-0.63-2.49-0.726-1.008-0.098-2.005-0.037-2.992 0.182v0l-2.559 0.569c-1.093 0.243-1.917 0.72-2.473 1.431-0.555 0.711-0.732 1.52-0.531 2.426v0l0.285 1.28c0.206 0.926 0.691 1.598 1.455 2.016 0.764 0.418 1.68 0.508 2.746 0.271z" fill="#f6f6f6" data-fill-palette-color="secondary"></path><path d="M223.649 251.492l-12.96-15.783 2.209-1.813 1.923 2.343c-0.138-1.158-0.017-2.301 0.366-3.428 0.382-1.127 0.964-2.011 1.745-2.652v0l2.153-1.768c1.451-1.192 3.032-1.66 4.744-1.404 1.712 0.255 3.224 1.183 4.537 2.781v0l8.754 10.662-2.279 1.872-8.807-10.725c-0.793-0.966-1.683-1.555-2.671-1.769-0.988-0.213-1.881 0.007-2.678 0.661v0l-2.026 1.664c-0.992 0.815-1.574 1.946-1.745 3.394-0.171 1.448 0.138 2.868 0.928 4.261v0l8.079 9.838z" fill="#f6f6f6" data-fill-palette-color="secondary"></path><path d="M275.246 198.205c-0.712 1.656-1.746 2.831-3.101 3.527-1.352 0.689-2.779 0.785-4.282 0.287v0l1.161-2.7c0.796 0.223 1.549 0.139 2.261-0.253 0.718-0.39 1.26-1.011 1.627-1.865v0l1.344-3.123c0.559-1.298 0.562-2.49 0.011-3.575-0.558-1.087-1.615-1.966-3.17-2.634v0l-2.898-1.247c0.515 0.876 0.813 1.859 0.894 2.949 0.084 1.084-0.053 2.04-0.409 2.868v0l-1.182 2.747c-0.55 1.279-1.343 2.291-2.376 3.036-1.031 0.738-2.205 1.151-3.521 1.239-1.31 0.091-2.68-0.172-4.11-0.787v0l-4.403-1.894c-2.227-0.958-3.752-2.38-4.576-4.265-0.827-1.879-0.787-3.873 0.12-5.981v0l1.134-2.634c0.345-0.803 0.926-1.53 1.741-2.183 0.819-0.659 1.682-1.075 2.59-1.249v0l-2.108-0.907 1.133-2.634 19.136 8.232c2.283 0.982 3.802 2.349 4.557 4.101 0.761 1.755 0.685 3.695-0.23 5.822v0zM265.126 194.075l1.15-2.672c0.537-1.248 0.502-2.531-0.106-3.848-0.602-1.314-1.641-2.363-3.117-3.147v0l-4.629-1.991c-1.316-0.447-2.563-0.426-3.74 0.063-1.177 0.49-2.012 1.308-2.506 2.456v0l-1.101 2.559c-0.572 1.33-0.567 2.596 0.016 3.798 0.583 1.202 1.636 2.131 3.161 2.787v0l4.403 1.894c1.405 0.604 2.709 0.727 3.911 0.367 1.209-0.357 2.062-1.112 2.558-2.266z" fill="#f6f6f6" data-fill-palette-color="secondary"></path></g></svg></g></svg></g></svg></g><g></g></svg></g><defs></defs><mask id="9db6f823-41c7-4de7-ba9a-5bd84e3ceac2"><g id="SvgjsG1325"><svg viewBox="0 0 279.72 279.72" height="279.72" width="279.72"><g><svg viewBox="0 0 279.72 279.72" height="279.72" width="279.72"><g><svg viewBox="0 0 279.72 279.72" height="279.72" width="279.72"><g id="SvgjsG1324"><svg viewBox="0 0 279.72 279.72" height="279.72" width="279.72" id="SvgjsSvg1323"><g><svg viewBox="0 0 279.72 279.72" height="279.72" width="279.72"><g transform="matrix(1,0,0,1,73.92936372216631,86.22214945697206)"><svg viewBox="0 0 131.8612725556674 107.27570108605589" height="107.27570108605589" width="131.8612725556674"><g id="SvgjsG1322"><svg xmlns="http://www.w3.org/2000/svg" xmlns:xlink="http://www.w3.org/1999/xlink" version="1.1" x="0" y="0" viewBox="5 13.380525391417759 90 73.21947460858223" enable-background="new 0 0 100 100" xml:space="preserve" height="107.27570108605589" width="131.8612725556674" class="icon-jxe-0" data-fill-palette-color="accent" id="SvgjsSvg1321"><g fill="white"><path fill="white" d="M90.4 21.4C88.9 21.2 87.3 22.1 86.7 23.5S86.6 26.7 87.8 27.7L95 26.7z"></path><path fill="white" d="M85.4 23.3C86.3 20.6 89.5 20.3 89.5 20.3 74.8 1.2 60.3 27.7 60.3 27.7 44.8 34.8 22.1 67 22.1 67 5.2 76.1 5 86.3 5 86.3H5.3C8 85.3 11.8 83.1 15.2 78.4 15.2 78.4 13.1 82.9 9.5 86.6 10.5 86.6 11.5 86.5 12.3 86.3 14.8 85.5 22.6 72.5 26.4 70S34.6 65.6 36.5 63.7C38.5 61.8 51.6 48.6 51.6 48.6 48.5 54.6 32.3 69 37.5 68.7S67.6 50.7 67.6 50.7C65.2 56.3 48.3 65.6 48.3 65.6 51 65.8 54.2 65.3 56.7 64.9 59.5 67.7 61.2 68.4 61.7 68.9 62.3 69.5 58.1 70 57.2 70.5S54.1 70.7 54.1 72.7C54.1 72.7 56.3 71.8 58.5 72.7 58.5 72.7 61.5 72.5 62.6 71L64.5 70.2S64.9 70.6 66 70.6C68.7 73.3 71.2 75.9 71.5 76.2 72.1 76.8 67.9 77.3 67 77.8S63.9 78 63.9 80C63.9 80 66.1 79.1 68.3 80 68.3 80 71.3 79.8 72.4 78.3L74.3 77.5S75.1 78.3 77.6 77.7 82.3 76.8 82.3 76.8 82.3 74.9 84.8 76.3C84.8 76.3 82.9 74.9 81.7 75 80.4 75.2 79.8 75.5 79.8 75.5L74.5 75 69.5 70C71.3 69.6 72.6 69.4 72.6 69.4S72.6 67.5 75.1 68.9C75.1 68.9 73.2 67.5 72 67.6 70.7 67.8 70.1 68.1 70.1 68.1L67.4 67.9 62.9 63.4C81.7 56 84.8 44.2 84.6 38.6 84.4 32.8 86.7 29 86.7 29S84.5 25.9 85.4 23.3M79.5 23.1C78.5 23.1 77.8 22.3 77.8 21.4 77.8 20.4 78.6 19.7 79.5 19.7 80.5 19.7 81.2 20.5 81.2 21.4 81.2 22.4 80.4 23.1 79.5 23.1"></path></g></svg></g></svg></g><g id="SvgjsG1320"><path d="M32.501 88.772l-8.468 0.028-4.338 11.793 6.434 5.499-1.075 2.922-23.083-20.223 0.481-1.307c0.311-0.846 1.05-1.272 2.217-1.279v0l17.688-0.205 0.014-0.038 0.077 0.028 11.128-0.14zM6.105 88.915l11.531 9.917 3.688-10.025-15.205 0.07z" fill="black"></path><path d="M61.51 50.707c-1.488 1.326-3.019 1.995-4.591 2.006-1.577 0.016-2.945-0.627-4.103-1.926v0l-0.873-0.979c-1.145-1.285-1.603-2.723-1.376-4.315 0.222-1.588 1.087-3.054 2.596-4.399v0l1.958-1.744c0.673-0.6 1.457-1.115 2.352-1.548 0.89-0.427 1.745-0.695 2.563-0.802v0l-2.262-2.539c-0.759-0.851-1.644-1.311-2.655-1.379-1.007-0.072-1.948 0.282-2.825 1.064v0l-2.447 2.18c-0.877 0.781-1.399 1.612-1.565 2.492-0.167 0.88 0.047 1.654 0.642 2.322v0l-2.194 1.956c-1.104-1.239-1.527-2.658-1.271-4.259 0.251-1.596 1.142-3.075 2.671-4.438v0l2.447-2.18c1.504-1.34 3.115-1.98 4.833-1.92 1.718 0.06 3.22 0.812 4.505 2.254v0l9.505 10.667-2.08 1.853-1.907-2.141c0.185 1.152 0.089 2.28-0.29 3.386-0.383 1.11-0.982 2.028-1.798 2.754v0zM59.793 48.781l1.897-1.69c0.958-0.854 1.551-1.913 1.778-3.177 0.222-1.259 0.032-2.493-0.57-3.703v0l-1.008-1.132c-0.753-0.024-1.593 0.167-2.521 0.573-0.933 0.411-1.776 0.952-2.531 1.625v0l-1.958 1.744c-0.836 0.745-1.323 1.563-1.461 2.455-0.138 0.892 0.101 1.684 0.719 2.377v0l0.872 0.979c0.631 0.709 1.383 1.059 2.254 1.051 0.871-0.008 1.714-0.375 2.529-1.102z" fill="black"></path><path d="M113.167 23.743c-1.116 0.266-2.088-0.219-2.915-1.453v0l-11.092-16.204 3.028-0.721 10.109 15.258 0.04-0.009 2.145-18.177 3.029-0.722-2.989 21.705z" fill="black"></path><path d="M166.437 24.004c-1.944-0.444-3.376-1.303-4.297-2.578-0.927-1.276-1.197-2.763-0.809-4.46v0l0.291-1.278c0.383-1.677 1.289-2.885 2.718-3.624 1.422-0.74 3.119-0.885 5.09-0.435v0l2.556 0.584c0.879 0.201 1.754 0.54 2.624 1.019 0.864 0.477 1.578 1.019 2.141 1.623v0l0.756-3.315c0.254-1.112 0.115-2.099-0.416-2.963-0.525-0.862-1.359-1.424-2.504-1.685v0l-3.195-0.729c-1.145-0.261-2.124-0.205-2.938 0.169-0.814 0.374-1.32 0.998-1.52 1.87v0l-2.865-0.654c0.369-1.618 1.28-2.786 2.733-3.505 1.446-0.72 3.168-0.853 5.164-0.396v0l3.195 0.729c1.964 0.448 3.419 1.39 4.367 2.825 0.947 1.435 1.206 3.094 0.775 4.977v0l-3.18 13.929-2.715-0.62 0.638-2.796c-0.831 0.819-1.807 1.394-2.926 1.728-1.126 0.331-2.222 0.375-3.287 0.132v0zM167.011 21.488l2.476 0.565c1.251 0.286 2.458 0.155 3.62-0.393 1.155-0.549 2.05-1.419 2.686-2.611v0l0.338-1.478c-0.417-0.627-1.06-1.201-1.929-1.722-0.875-0.522-1.806-0.895-2.791-1.12v0l-2.556-0.584c-1.092-0.249-2.041-0.172-2.847 0.233-0.807 0.404-1.313 1.059-1.52 1.964v0l-0.292 1.278c-0.211 0.925-0.061 1.74 0.451 2.445 0.511 0.705 1.3 1.179 2.364 1.423z" fill="black"></path><path d="M217.375 49.975c-1.569-1.359-2.441-2.891-2.616-4.597-0.181-1.71 0.353-3.285 1.6-4.725v0l2.167 1.878c-0.747 0.862-1.076 1.8-0.989 2.815 0.092 1.02 0.593 1.923 1.501 2.71v0l2.694 2.333c0.888 0.769 1.767 1.214 2.637 1.336 0.865 0.117 1.548-0.113 2.049-0.691v0l0.905-1.045c0.34-0.392 0.484-0.872 0.434-1.44-0.045-0.563-0.271-1.111-0.676-1.643v0l-4.552-5.57c-0.907-1.111-1.413-2.263-1.519-3.456-0.105-1.193 0.209-2.212 0.943-3.058v0l0.878-1.015c1.037-1.197 2.327-1.769 3.871-1.714 1.538 0.05 3.05 0.718 4.536 2.005v0l2.663 2.307c1.44 1.247 2.25 2.663 2.431 4.247 0.181 1.584-0.307 3.045-1.464 4.382v0l-2.168-1.878c0.637-0.776 0.916-1.605 0.839-2.485-0.083-0.885-0.516-1.667-1.301-2.346v0l-2.663-2.307c-0.826-0.715-1.652-1.097-2.478-1.144-0.826-0.047-1.508 0.239-2.044 0.858v0l-0.771 0.89c-0.34 0.392-0.473 0.891-0.401 1.496 0.072 0.605 0.341 1.181 0.806 1.728v0l4.521 5.542c0.866 1.075 1.346 2.195 1.439 3.361 0.093 1.165-0.236 2.181-0.987 3.047v0l-1.066 1.231c-0.984 1.135-2.259 1.638-3.827 1.508-1.568-0.13-3.134-0.872-4.698-2.226v0z" fill="black"></path><path d="M247.832 90.13l26.623-10.573 1.085 2.731-10.271 4.079c1.12 0.231 2.128 0.697 3.025 1.4 0.896 0.702 1.53 1.523 1.903 2.462v0l1.059 2.665c0.693 1.745 0.657 3.394-0.108 4.946-0.765 1.553-2.108 2.711-4.03 3.474v0l-12.822 5.093-1.088-2.742 12.897-5.122c1.161-0.461 1.994-1.13 2.498-2.006 0.504-0.876 0.566-1.793 0.186-2.752v0l-0.998-2.512c-0.474-1.193-1.368-2.094-2.683-2.704-1.308-0.612-2.736-0.757-4.284-0.436v0l-11.907 4.729z" fill="black"></path><path d="M0 139.856c0-6.043 4.899-10.943 10.943-10.942 6.043 0 10.943 4.899 10.942 10.942 0 6.043-4.899 10.943-10.942 10.943-6.043 0-10.943-4.899-10.943-10.943z" fill="black"></path><path d="M257.835 139.856c0-6.043 4.899-10.943 10.942-10.942 6.043 0 10.943 4.899 10.943 10.942 0 6.043-4.899 10.943-10.943 10.943-6.043 0-10.943-4.899-10.942-10.943z" fill="black"></path></g><g id="SvgjsG1319"><path d="M8.961 186.5l24.542-8.654-3.021-8.568 2.473-0.871 7.05 19.993-2.473 0.872-3.021-8.567-24.542 8.654z" fill="black"></path><path d="M39.496 237.058c-1.378-1.441-2.1-2.947-2.166-4.517-0.071-1.576 0.522-2.966 1.78-4.169v0l0.948-0.906c1.243-1.189 2.665-1.698 4.264-1.528 1.595 0.166 3.091 0.979 4.487 2.44v0l1.813 1.895c0.623 0.651 1.164 1.414 1.622 2.288 0.463 0.88 0.763 1.727 0.899 2.541v0l2.458-2.35c0.824-0.788 1.252-1.689 1.284-2.702 0.032-1.013-0.355-1.942-1.162-2.786v0l-2.265-2.368c-0.812-0.849-1.66-1.341-2.546-1.477-0.886-0.136-1.654 0.108-2.305 0.731v0l-2.032-2.124c1.204-1.151 2.608-1.63 4.212-1.435 1.608 0.2 3.121 1.04 4.536 2.521v0l2.265 2.368c1.392 1.456 2.088 3.043 2.089 4.762 0 1.719-0.698 3.247-2.094 4.583v0l-10.325 9.874-1.926-2.013 2.073-1.982c-1.145 0.226-2.278 0.167-3.401-0.177-1.118-0.339-2.054-0.903-2.809-1.692v0zM41.361 235.274l1.756 1.836c0.887 0.928 1.964 1.48 3.23 1.658 1.271 0.183 2.5-0.048 3.688-0.693v0l1.095-1.047c-0.003-0.753-0.225-1.589-0.668-2.507-0.438-0.913-1.007-1.734-1.706-2.465v0l-1.812-1.894c-0.774-0.809-1.609-1.267-2.504-1.375-0.896-0.107-1.679 0.161-2.351 0.803v0l-0.947 0.906c-0.686 0.656-1.01 1.419-0.971 2.289 0.039 0.87 0.435 1.7 1.19 2.489z" fill="black"></path><path d="M116.351 256.449c1.724 0.527 2.918 1.5 3.584 2.918 0.666 1.418 0.7 3.102 0.103 5.054v0l-4.156 13.584-2.821-0.863 4.18-13.662c0.35-1.143 0.363-2.12 0.041-2.933-0.323-0.813-0.915-1.351-1.777-1.615v0l-2.223-0.68c-1.123-0.344-2.166-0.249-3.129 0.285-0.963 0.534-1.76 1.457-2.39 2.771v0l-3.976 12.996-2.821-0.863 4.109-13.427c0.374-1.221 0.425-2.251 0.153-3.091-0.265-0.838-0.815-1.385-1.651-1.64v0l-2.233-0.683c-1.071-0.328-2.155-0.145-3.252 0.547-1.097 0.692-1.981 1.761-2.651 3.205v0l-3.749 12.252-2.811-0.86 5.975-19.528 2.733 0.836-0.863 2.82c0.826-0.833 1.715-1.403 2.665-1.712 0.951-0.309 1.858-0.331 2.72-0.067v0l2.311 0.707c1.09 0.334 1.952 0.89 2.585 1.669 0.633 0.779 1.002 1.742 1.108 2.888v0c0.92-0.861 1.878-1.425 2.874-1.691 0.996-0.267 1.989-0.248 2.982 0.055v0z" fill="black"></path><path d="M170.353 276.433c-1.946 0.433-3.608 0.271-4.987-0.486-1.385-0.755-2.266-1.983-2.644-3.682v0l-0.284-1.28c-0.373-1.68-0.073-3.159 0.902-4.439 0.968-1.278 2.438-2.137 4.411-2.575v0l2.559-0.569c0.88-0.196 1.813-0.263 2.798-0.203 0.992 0.059 1.872 0.241 2.64 0.547v0l-0.738-3.319c-0.247-1.113-0.796-1.946-1.646-2.499-0.85-0.552-1.845-0.702-2.985-0.448v0l-3.2 0.711c-1.146 0.255-2.007 0.726-2.581 1.413-0.575 0.687-0.764 1.471-0.569 2.351v0l-2.869 0.637c-0.361-1.626-0.043-3.075 0.954-4.345 1.004-1.272 2.506-2.131 4.505-2.575v0l3.2-0.712c1.966-0.437 3.685-0.211 5.155 0.68 1.471 0.89 2.416 2.278 2.835 4.164v0l3.1 13.947-2.719 0.605-0.622-2.8c-0.4 1.096-1.037 2.035-1.913 2.817-0.869 0.781-1.836 1.289-2.902 1.527v0zM169.793 273.914l2.479-0.551c1.253-0.279 2.283-0.913 3.092-1.904 0.815-0.992 1.254-2.164 1.317-3.514v0l-0.329-1.48c-0.646-0.388-1.476-0.63-2.49-0.726-1.008-0.098-2.005-0.037-2.992 0.182v0l-2.559 0.569c-1.093 0.243-1.917 0.72-2.473 1.431-0.555 0.711-0.732 1.52-0.531 2.426v0l0.285 1.28c0.206 0.926 0.691 1.598 1.455 2.016 0.764 0.418 1.68 0.508 2.746 0.271z" fill="black"></path><path d="M223.649 251.492l-12.96-15.783 2.209-1.813 1.923 2.343c-0.138-1.158-0.017-2.301 0.366-3.428 0.382-1.127 0.964-2.011 1.745-2.652v0l2.153-1.768c1.451-1.192 3.032-1.66 4.744-1.404 1.712 0.255 3.224 1.183 4.537 2.781v0l8.754 10.662-2.279 1.872-8.807-10.725c-0.793-0.966-1.683-1.555-2.671-1.769-0.988-0.213-1.881 0.007-2.678 0.661v0l-2.026 1.664c-0.992 0.815-1.574 1.946-1.745 3.394-0.171 1.448 0.138 2.868 0.928 4.261v0l8.079 9.838z" fill="black"></path><path d="M275.246 198.205c-0.712 1.656-1.746 2.831-3.101 3.527-1.352 0.689-2.779 0.785-4.282 0.287v0l1.161-2.7c0.796 0.223 1.549 0.139 2.261-0.253 0.718-0.39 1.26-1.011 1.627-1.865v0l1.344-3.123c0.559-1.298 0.562-2.49 0.011-3.575-0.558-1.087-1.615-1.966-3.17-2.634v0l-2.898-1.247c0.515 0.876 0.813 1.859 0.894 2.949 0.084 1.084-0.053 2.04-0.409 2.868v0l-1.182 2.747c-0.55 1.279-1.343 2.291-2.376 3.036-1.031 0.738-2.205 1.151-3.521 1.239-1.31 0.091-2.68-0.172-4.11-0.787v0l-4.403-1.894c-2.227-0.958-3.752-2.38-4.576-4.265-0.827-1.879-0.787-3.873 0.12-5.981v0l1.134-2.634c0.345-0.803 0.926-1.53 1.741-2.183 0.819-0.659 1.682-1.075 2.59-1.249v0l-2.108-0.907 1.133-2.634 19.136 8.232c2.283 0.982 3.802 2.349 4.557 4.101 0.761 1.755 0.685 3.695-0.23 5.822v0zM265.126 194.075l1.15-2.672c0.537-1.248 0.502-2.531-0.106-3.848-0.602-1.314-1.641-2.363-3.117-3.147v0l-4.629-1.991c-1.316-0.447-2.563-0.426-3.74 0.063-1.177 0.49-2.012 1.308-2.506 2.456v0l-1.101 2.559c-0.572 1.33-0.567 2.596 0.016 3.798 0.583 1.202 1.636 2.131 3.161 2.787v0l4.403 1.894c1.405 0.604 2.709 0.727 3.911 0.367 1.209-0.357 2.062-1.112 2.558-2.266z" fill="black"></path></g></svg></g></svg></g></svg></g><g></g></svg></g><defs><mask></mask></defs></svg><rect width="279.72" height="279.72" fill="black" stroke="none" visibility="hidden"></rect></g></mask><linearGradient x1="0.054" x2="0.941" y1="0.5" y2="0.5" id="6918eb53-2e29-43cf-9dbc-be74eacc26a7"><stop stop-color="#8c8c8c" offset="0"></stop><stop stop-color="#e3e4e5" offset="0.498"></stop><stop stop-color="#8c8c8c" offset="1"></stop></linearGradient><rect width="279.72" height="279.72" fill="url(#6918eb53-2e29-43cf-9dbc-be74eacc26a7)" mask="url(#9db6f823-41c7-4de7-ba9a-5bd84e3ceac2)" data-fill-palette-color="accent"></rect></svg><rect width="279.72" height="279.72" fill="none" stroke="none" visibility="hidden"></rect></g></svg></g></svg>